<?xml version="1.0" encoding="utf-8"?>
<!-- Generator: Adobe Illustrator 27.5.0, SVG Export Plug-In . SVG Version: 6.00 Build 0)  -->
<svg version="1.1" xmlns="http://www.w3.org/2000/svg" xmlns:xlink="http://www.w3.org/1999/xlink" x="0px" y="0px"
	 viewBox="0 0 606.66 126.59" style="enable-background:new 0 0 606.66 126.59;" xml:space="preserve">
<style type="text/css">
	.st0{fill-rule:evenodd;clip-rule:evenodd;fill:#F5A22C;}
	.st1{fill-rule:evenodd;clip-rule:evenodd;fill:url(#SVGID_00000018203592762007934300000007050398024421021363_);}
	.st2{fill-rule:evenodd;clip-rule:evenodd;fill:#F8AF2C;}
	.st3{fill-rule:evenodd;clip-rule:evenodd;fill:url(#SVGID_00000073720547263814665050000008852408165305971370_);}
	.st4{fill-rule:evenodd;clip-rule:evenodd;fill:#FABB29;}
	.st5{fill-rule:evenodd;clip-rule:evenodd;fill:#F3D744;}
	.st6{fill-rule:evenodd;clip-rule:evenodd;fill:url(#SVGID_00000114042446240346273160000001082066844046017176_);}
	.st7{fill:#232856;}
	.st8{fill:#F5A22C;}
</style>
<g id="Laag_1">
	<g>
		<g>
			<defs>
				<path id="SVGID_1_" d="M109.59,3.15L109.59,3.15c-0.01,0.04-62.93-0.08-63.78,0.04c0,0.01,0,0.01,0,0.01l-0.05-0.05l-45.1,45.1
					l15.52,15.52l-0.02,0.02l62.31,62.31l15.56-15.56L31.77,48.26l23.11-23.11h45.6l23.1,23.1L94.03,77.79l15.56,15.56l45.1-45.1
					l0,0l0,0L109.59,3.15L109.59,3.15L109.59,3.15z"/>
			</defs>
			
				<linearGradient id="SVGID_00000101063946565398156970000004670736382342640003_" gradientUnits="userSpaceOnUse" x1="0.6566" y1="64.6112" x2="154.696" y2="64.6112">
				<stop  offset="0" style="stop-color:#FAB92B"/>
				<stop  offset="1" style="stop-color:#F7DE28"/>
			</linearGradient>
			
				<use xlink:href="#SVGID_1_"  style="overflow:visible;fill-rule:evenodd;clip-rule:evenodd;fill:url(#SVGID_00000101063946565398156970000004670736382342640003_);"/>
			<clipPath id="SVGID_00000010275438325722601910000015813221910311362958_">
				<use xlink:href="#SVGID_1_"  style="overflow:visible;"/>
			</clipPath>
		</g>
		<polygon class="st0" points="78.47,126.09 39.55,87.17 0.66,48.26 94.03,110.53 		"/>
		
			<linearGradient id="SVGID_00000117663679095828269610000016976545225008051358_" gradientUnits="userSpaceOnUse" x1="0.6103" y1="25.6949" x2="45.7445" y2="25.6949">
			<stop  offset="0" style="stop-color:#FAB92B"/>
			<stop  offset="0.4447" style="stop-color:#FABB2B"/>
			<stop  offset="0.6869" style="stop-color:#F9C32A"/>
			<stop  offset="0.8797" style="stop-color:#F8D129"/>
			<stop  offset="1" style="stop-color:#F7DE28"/>
		</linearGradient>
		
			<polygon style="fill-rule:evenodd;clip-rule:evenodd;fill:url(#SVGID_00000117663679095828269610000016976545225008051358_);" points="
			31.73,48.19 0.61,48.19 28.83,19.96 45.74,3.2 		"/>
		<polygon class="st2" points="45.76,3.15 54.87,25.16 44.54,35.49 31.77,48.26 		"/>
		
			<linearGradient id="SVGID_00000119104609406388129490000018133119607892212398_" gradientUnits="userSpaceOnUse" x1="45.8122" y1="14.178" x2="100.4779" y2="14.178">
			<stop  offset="0" style="stop-color:#FAB92B"/>
			<stop  offset="1" style="stop-color:#F7DE28"/>
		</linearGradient>
		
			<polygon style="fill-rule:evenodd;clip-rule:evenodd;fill:url(#SVGID_00000119104609406388129490000018133119607892212398_);" points="
			54.87,25.13 45.81,3.2 100.48,25.16 		"/>
		<polygon class="st4" points="100.48,25.16 94.03,22.57 45.74,3.2 109.59,3.15 		"/>
		<polygon class="st5" points="109.59,3.17 109.59,3.17 123.57,48.25 100.48,25.18 		"/>
		
			<linearGradient id="SVGID_00000083802686012679069900000007354652172372144017_" gradientUnits="userSpaceOnUse" x1="94.0313" y1="40.4831" x2="154.6915" y2="40.4831">
			<stop  offset="0" style="stop-color:#FAB92B"/>
			<stop  offset="0.4447" style="stop-color:#FABB2B"/>
			<stop  offset="0.6869" style="stop-color:#F9C32A"/>
			<stop  offset="0.8797" style="stop-color:#F8D129"/>
			<stop  offset="1" style="stop-color:#F7DE28"/>
		</linearGradient>
		
			<polygon style="fill-rule:evenodd;clip-rule:evenodd;fill:url(#SVGID_00000083802686012679069900000007354652172372144017_);" points="
			94.03,77.79 123.57,48.25 109.59,3.17 154.69,48.25 		"/>
	</g>
	<g>
		<path class="st7" d="M381.1,22.38c0-3.13,1.86-4.99,4.99-4.99h9.31V1.24h-14.72c-12.97,0-19.71,7.17-19.71,19.44v4.53h-10.37
			v19.26h10.11v42.27h21.07V44.46h13.73V25.2H381.1V22.38z"/>
		<path class="st7" d="M206.23,7.4h-33.76v79.34h21.86V64.75h11.89c16.86,0,29.37-12.09,29.37-28.72
			C235.59,19.39,223.09,7.4,206.23,7.4z M203.6,45.72h-9.27V25.2h9.27c5.76,0,9.56,5.23,9.56,10.88
			C213.16,41.72,209.36,45.72,203.6,45.72z"/>
		<path class="st7" d="M271.04,23.53c-19.21,0-33.25,13.79-33.25,32.56c0,18.71,14.15,32.65,33.25,32.65
			c15.36,0,27.74-8.72,32.05-22.69h-20.98c-2.03,3.59-6.14,5.74-11.07,5.74c-6.66,0-11.12-3.63-12.5-10.66H304
			c0.27-1.89,0.44-3.74,0.44-5.58l0,0C304.43,37.6,290.77,23.53,271.04,23.53z M258.92,49.46c1.71-6.08,5.98-9.42,12.12-9.42
			c6.36,0,10.77,3.3,12.62,9.42H258.92z"/>
		<path class="st7" d="M342.78,25.2c-7.29,0-12.54,2.09-16.86,7.07l-3.45-7.07h-14.12l0.17,61.54h21.07V55.56
			c0-7.82,3.13-11.1,10.59-11.1h5.94V25.2H342.78z"/>
		<path class="st7" d="M589.75,25.2l-2.16,5.01c-5.05-4.17-11.5-6.58-18.71-6.58c-18.72,0-32.09,13.48-32.09,32.44
			c0,19.03,13.37,32.67,32.09,32.67c7.11,0,13.46-2.34,18.48-6.39l1.8,4.32h16.29V25.2L589.75,25.2z M571.71,70.09
			c-7.9,0-13.71-5.97-13.71-13.96c0-7.96,5.76-13.93,13.71-13.93c7.9,0,13.71,5.97,13.71,13.92
			C585.42,64.12,579.61,70.09,571.71,70.09z"/>
		<g>
			<path class="st7" d="M465.61,25.2l-15.7,0l-1.88,5.01c-5.05-4.17-11.5-6.58-18.71-6.58c-18.72,0-32.09,13.48-32.09,32.44
				c0,19.03,13.37,32.67,32.09,32.67c7.11,0,13.46-2.34,18.48-6.39l1.8,4.32h16.29L465.61,25.2z M432.13,70.09
				c-7.9,0-13.71-5.97-13.71-13.96c0-7.96,5.76-13.93,13.71-13.93c7.9,0,13.71,5.97,13.71,13.92
				C445.84,64.12,440.03,70.09,432.13,70.09z"/>
		</g>
		<path class="st7" d="M509.14,23.73c-7.88,0-14.65,3.03-19.2,8.1l-3.05-6.62h-14.78l0.16,61.54h21.07V54.06
			c0-7.84,3.77-12.44,10.32-12.44c5.28,0,7.95,3.54,7.95,10.67v34.45h21.07V49.37C532.67,33.8,523.34,23.73,509.14,23.73z"/>
		<polygon class="st7" points="350.55,25.2 350.6,44.46 350.61,44.46 350.61,25.2 		"/>
	</g>
</g>
<g id="Layer_2">
	<g>
		<path class="st8" d="M183,116.98c-0.64,0.32-2.06,0.76-3.87,0.76c-4.06,0-6.7-2.67-6.7-6.67c0-4.02,2.84-6.94,7.23-6.94
			c1.45,0,2.73,0.35,3.39,0.67l-0.56,1.83c-0.58-0.32-1.5-0.62-2.84-0.62c-3.09,0-4.76,2.21-4.76,4.94c0,3.02,2,4.89,4.67,4.89
			c1.39,0,2.31-0.35,3-0.65L183,116.98z"/>
		<path class="st8" d="M197.74,110.82c0,4.83-3.45,6.94-6.7,6.94c-3.64,0-6.45-2.59-6.45-6.72c0-4.37,2.95-6.94,6.68-6.94
			C195.13,104.1,197.74,106.83,197.74,110.82z M187.06,110.96c0,2.86,1.7,5.02,4.09,5.02c2.34,0,4.09-2.13,4.09-5.08
			c0-2.21-1.14-5.02-4.03-5.02C188.31,105.88,187.06,108.48,187.06,110.96z"/>
		<path class="st8" d="M200.69,107.94c0-1.35-0.03-2.46-0.11-3.54h2.17l0.14,2.16h0.06c0.67-1.24,2.23-2.46,4.45-2.46
			c1.86,0,4.76,1.08,4.76,5.56v7.8h-2.45v-7.53c0-2.11-0.81-3.86-3.12-3.86c-1.61,0-2.87,1.11-3.28,2.43
			c-0.11,0.3-0.17,0.7-0.17,1.11v7.85h-2.45V107.94z"/>
		<path class="st8" d="M218.82,100.65v3.75h3.5v1.81h-3.5v7.04c0,1.62,0.47,2.54,1.84,2.54c0.64,0,1.11-0.08,1.42-0.16l0.11,1.78
			c-0.47,0.19-1.22,0.32-2.17,0.32c-1.14,0-2.06-0.35-2.64-1c-0.7-0.7-0.95-1.86-0.95-3.4v-7.13h-2.09v-1.81h2.09v-3.13
			L218.82,100.65z"/>
		<path class="st8" d="M227.66,100.73c0.03,0.81-0.58,1.46-1.56,1.46c-0.86,0-1.47-0.65-1.47-1.46c0-0.84,0.64-1.48,1.53-1.48
			C227.08,99.25,227.66,99.89,227.66,100.73z M224.94,117.46V104.4h2.45v13.06H224.94z"/>
		<path class="st8" d="M231.31,107.94c0-1.35-0.03-2.46-0.11-3.54h2.17l0.14,2.16h0.06c0.67-1.24,2.23-2.46,4.45-2.46
			c1.86,0,4.76,1.08,4.76,5.56v7.8h-2.45v-7.53c0-2.11-0.81-3.86-3.12-3.86c-1.61,0-2.87,1.11-3.28,2.43
			c-0.11,0.3-0.17,0.7-0.17,1.11v7.85h-2.45V107.94z"/>
		<path class="st8" d="M257.87,113.9c0,1.35,0.03,2.54,0.11,3.56h-2.17l-0.14-2.13h-0.06c-0.64,1.05-2.06,2.43-4.45,2.43
			c-2.11,0-4.65-1.13-4.65-5.72v-7.64h2.45v7.23c0,2.48,0.78,4.16,3,4.16c1.64,0,2.78-1.11,3.23-2.16c0.14-0.35,0.22-0.78,0.22-1.21
			v-8.02h2.45V113.9z"/>
		<path class="st8" d="M273.97,110.82c0,4.83-3.45,6.94-6.7,6.94c-3.64,0-6.45-2.59-6.45-6.72c0-4.37,2.95-6.94,6.68-6.94
			C271.35,104.1,273.97,106.83,273.97,110.82z M263.29,110.96c0,2.86,1.7,5.02,4.09,5.02c2.34,0,4.09-2.13,4.09-5.08
			c0-2.21-1.14-5.02-4.03-5.02C264.54,105.88,263.29,108.48,263.29,110.96z"/>
		<path class="st8" d="M288.18,113.9c0,1.35,0.03,2.54,0.11,3.56h-2.17l-0.14-2.13h-0.06c-0.64,1.05-2.06,2.43-4.45,2.43
			c-2.11,0-4.65-1.13-4.65-5.72v-7.64h2.45v7.23c0,2.48,0.78,4.16,3,4.16c1.64,0,2.78-1.11,3.23-2.16c0.14-0.35,0.22-0.78,0.22-1.21
			v-8.02h2.45V113.9z"/>
		<path class="st8" d="M291.76,115.04c0.72,0.46,2,0.95,3.23,0.95c1.78,0,2.62-0.86,2.62-1.94c0-1.13-0.7-1.75-2.5-2.4
			c-2.42-0.84-3.56-2.13-3.56-3.7c0-2.11,1.75-3.83,4.65-3.83c1.36,0,2.56,0.38,3.31,0.81l-0.61,1.73c-0.53-0.32-1.5-0.76-2.75-0.76
			c-1.45,0-2.25,0.81-2.25,1.78c0,1.08,0.81,1.57,2.56,2.21c2.34,0.86,3.53,2,3.53,3.94c0,2.29-1.84,3.91-5.03,3.91
			c-1.47,0-2.84-0.35-3.78-0.89L291.76,115.04z"/>
		<path class="st8" d="M312.54,108.67c0-1.67-0.06-3.02-0.11-4.26h2.2l0.11,2.24h0.06c1-1.59,2.59-2.54,4.78-2.54
			c3.25,0,5.7,2.67,5.7,6.64c0,4.7-2.95,7.02-6.12,7.02c-1.78,0-3.34-0.76-4.14-2.05h-0.06v7.1h-2.42V108.67z M314.96,112.15
			c0,0.35,0.06,0.67,0.11,0.97c0.44,1.65,1.92,2.78,3.67,2.78c2.59,0,4.09-2.05,4.09-5.05c0-2.62-1.42-4.86-4.01-4.86
			c-1.67,0-3.23,1.16-3.7,2.94c-0.08,0.3-0.17,0.65-0.17,0.97V112.15z"/>
		<path class="st8" d="M329.59,111.36c0.06,3.21,2.17,4.54,4.62,4.54c1.75,0,2.81-0.3,3.73-0.67l0.42,1.7
			c-0.86,0.38-2.34,0.81-4.48,0.81c-4.14,0-6.62-2.64-6.62-6.59c0-3.94,2.39-7.04,6.31-7.04c4.4,0,5.56,3.75,5.56,6.15
			c0,0.49-0.06,0.86-0.08,1.11H329.59z M336.76,109.66c0.03-1.51-0.64-3.86-3.39-3.86c-2.48,0-3.56,2.21-3.75,3.86H336.76z"/>
		<path class="st8" d="M342.02,108.48c0-1.54-0.03-2.86-0.11-4.08h2.14l0.08,2.56h0.11c0.61-1.75,2.09-2.86,3.73-2.86
			c0.28,0,0.47,0.03,0.7,0.08v2.24c-0.25-0.05-0.5-0.08-0.83-0.08c-1.72,0-2.95,1.27-3.28,3.05c-0.06,0.32-0.11,0.7-0.11,1.11v6.96
			h-2.42V108.48z"/>
		<path class="st8" d="M352.06,117.46v-11.26h-1.89v-1.81h1.89v-0.62c0-1.83,0.42-3.51,1.56-4.56c0.92-0.86,2.14-1.21,3.28-1.21
			c0.86,0,1.61,0.19,2.09,0.38l-0.33,1.84c-0.36-0.16-0.86-0.3-1.56-0.3c-2.09,0-2.61,1.78-2.61,3.78v0.7h3.25v1.81h-3.25v11.26
			H352.06z"/>
		<path class="st8" d="M371.61,110.82c0,4.83-3.45,6.94-6.7,6.94c-3.64,0-6.45-2.59-6.45-6.72c0-4.37,2.95-6.94,6.68-6.94
			C368.99,104.1,371.61,106.83,371.61,110.82z M360.93,110.96c0,2.86,1.7,5.02,4.09,5.02c2.34,0,4.09-2.13,4.09-5.08
			c0-2.21-1.14-5.02-4.03-5.02C362.18,105.88,360.93,108.48,360.93,110.96z"/>
		<path class="st8" d="M374.55,108.48c0-1.54-0.03-2.86-0.11-4.08h2.14l0.08,2.56h0.11c0.61-1.75,2.09-2.86,3.73-2.86
			c0.28,0,0.47,0.03,0.7,0.08v2.24c-0.25-0.05-0.5-0.08-0.83-0.08c-1.72,0-2.95,1.27-3.28,3.05c-0.06,0.32-0.11,0.7-0.11,1.11v6.96
			h-2.42V108.48z"/>
		<path class="st8" d="M383.62,107.94c0-1.35-0.03-2.46-0.11-3.54h2.14l0.11,2.11h0.08c0.75-1.24,2-2.4,4.23-2.4
			c1.84,0,3.23,1.08,3.81,2.62h0.06c0.42-0.73,0.95-1.3,1.5-1.7c0.81-0.59,1.7-0.92,2.98-0.92c1.78,0,4.42,1.13,4.42,5.67v7.69
			h-2.39v-7.4c0-2.51-0.95-4.02-2.92-4.02c-1.39,0-2.48,1-2.89,2.16c-0.11,0.32-0.19,0.76-0.19,1.19v8.07h-2.39v-7.83
			c0-2.08-0.95-3.59-2.81-3.59c-1.53,0-2.64,1.19-3.03,2.38c-0.14,0.35-0.19,0.76-0.19,1.16v7.88h-2.39V107.94z"/>
		<path class="st8" d="M414.13,117.46l-0.19-1.65h-0.08c-0.75,1.03-2.2,1.94-4.12,1.94c-2.73,0-4.12-1.86-4.12-3.75
			c0-3.16,2.89-4.89,8.09-4.86v-0.27c0-1.08-0.31-3.02-3.06-3.02c-1.25,0-2.56,0.38-3.5,0.97l-0.56-1.57
			c1.11-0.7,2.73-1.16,4.42-1.16c4.12,0,5.12,2.73,5.12,5.34v4.89c0,1.13,0.06,2.24,0.22,3.13H414.13z M413.77,110.8
			c-2.67-0.05-5.7,0.4-5.7,2.94c0,1.54,1.06,2.27,2.31,2.27c1.75,0,2.87-1.08,3.25-2.19c0.08-0.24,0.14-0.51,0.14-0.76V110.8z"/>
		<path class="st8" d="M419.94,107.94c0-1.35-0.03-2.46-0.11-3.54H422l0.14,2.16h0.06c0.67-1.24,2.22-2.46,4.45-2.46
			c1.86,0,4.76,1.08,4.76,5.56v7.8h-2.45v-7.53c0-2.11-0.81-3.86-3.12-3.86c-1.61,0-2.87,1.11-3.28,2.43
			c-0.11,0.3-0.17,0.7-0.17,1.11v7.85h-2.45V107.94z"/>
		<path class="st8" d="M444.83,116.98c-0.64,0.32-2.06,0.76-3.87,0.76c-4.06,0-6.7-2.67-6.7-6.67c0-4.02,2.84-6.94,7.23-6.94
			c1.45,0,2.73,0.35,3.39,0.67l-0.56,1.83c-0.58-0.32-1.5-0.62-2.84-0.62c-3.09,0-4.76,2.21-4.76,4.94c0,3.02,2,4.89,4.67,4.89
			c1.39,0,2.31-0.35,3-0.65L444.83,116.98z"/>
		<path class="st8" d="M448.75,111.36c0.06,3.21,2.17,4.54,4.62,4.54c1.75,0,2.81-0.3,3.73-0.67l0.42,1.7
			c-0.86,0.38-2.34,0.81-4.48,0.81c-4.14,0-6.62-2.64-6.62-6.59c0-3.94,2.39-7.04,6.31-7.04c4.4,0,5.56,3.75,5.56,6.15
			c0,0.49-0.06,0.86-0.08,1.11H448.75z M455.93,109.66c0.03-1.51-0.64-3.86-3.39-3.86c-2.48,0-3.56,2.21-3.75,3.86H455.93z"/>
		<path class="st8" d="M472.11,111.36c0.06,3.21,2.17,4.54,4.62,4.54c1.75,0,2.81-0.3,3.73-0.67l0.42,1.7
			c-0.86,0.38-2.34,0.81-4.48,0.81c-4.14,0-6.62-2.64-6.62-6.59c0-3.94,2.39-7.04,6.31-7.04c4.4,0,5.56,3.75,5.56,6.15
			c0,0.49-0.06,0.86-0.08,1.11H472.11z M479.29,109.66c0.03-1.51-0.64-3.86-3.39-3.86c-2.48,0-3.56,2.21-3.75,3.86H479.29z"/>
		<path class="st8" d="M484.43,107.94c0-1.35-0.03-2.46-0.11-3.54h2.17l0.14,2.16h0.06c0.67-1.24,2.22-2.46,4.45-2.46
			c1.86,0,4.76,1.08,4.76,5.56v7.8h-2.45v-7.53c0-2.11-0.81-3.86-3.12-3.86c-1.61,0-2.87,1.11-3.28,2.43
			c-0.11,0.3-0.17,0.7-0.17,1.11v7.85h-2.45V107.94z"/>
		<path class="st8" d="M511.21,104.4c-0.06,0.94-0.11,2-0.11,3.59v7.58c0,3-0.61,4.83-1.92,5.97c-1.31,1.19-3.2,1.57-4.9,1.57
			c-1.61,0-3.39-0.38-4.48-1.08l0.61-1.81c0.89,0.54,2.28,1.03,3.95,1.03c2.5,0,4.34-1.27,4.34-4.56v-1.46h-0.06
			c-0.75,1.21-2.2,2.19-4.28,2.19c-3.34,0-5.73-2.75-5.73-6.37c0-4.43,2.98-6.94,6.06-6.94c2.34,0,3.62,1.19,4.2,2.27h0.06
			l0.11-1.97H511.21z M508.68,109.56c0-0.4-0.03-0.76-0.14-1.08c-0.45-1.38-1.64-2.51-3.42-2.51c-2.34,0-4,1.92-4,4.94
			c0,2.56,1.33,4.7,3.98,4.7c1.5,0,2.87-0.92,3.39-2.43c0.14-0.4,0.19-0.86,0.19-1.27V109.56z"/>
		<path class="st8" d="M517.47,100.73c0.03,0.81-0.58,1.46-1.56,1.46c-0.86,0-1.47-0.65-1.47-1.46c0-0.84,0.64-1.48,1.53-1.48
			C516.89,99.25,517.47,99.89,517.47,100.73z M514.74,117.46V104.4h2.45v13.06H514.74z"/>
		<path class="st8" d="M521,107.94c0-1.35-0.03-2.46-0.11-3.54h2.17l0.14,2.16h0.06c0.67-1.24,2.22-2.46,4.45-2.46
			c1.86,0,4.76,1.08,4.76,5.56v7.8h-2.45v-7.53c0-2.11-0.81-3.86-3.12-3.86c-1.61,0-2.87,1.11-3.28,2.43
			c-0.11,0.3-0.17,0.7-0.17,1.11v7.85H521V107.94z"/>
		<path class="st8" d="M537.55,111.36c0.06,3.21,2.17,4.54,4.62,4.54c1.75,0,2.81-0.3,3.73-0.67l0.42,1.7
			c-0.86,0.38-2.34,0.81-4.48,0.81c-4.14,0-6.62-2.64-6.62-6.59c0-3.94,2.39-7.04,6.31-7.04c4.4,0,5.56,3.75,5.56,6.15
			c0,0.49-0.06,0.86-0.08,1.11H537.55z M544.72,109.66c0.03-1.51-0.64-3.86-3.39-3.86c-2.48,0-3.56,2.21-3.75,3.86H544.72z"/>
		<path class="st8" d="M551.23,111.36c0.06,3.21,2.17,4.54,4.62,4.54c1.75,0,2.81-0.3,3.73-0.67l0.42,1.7
			c-0.86,0.38-2.34,0.81-4.48,0.81c-4.14,0-6.62-2.64-6.62-6.59c0-3.94,2.39-7.04,6.31-7.04c4.4,0,5.56,3.75,5.56,6.15
			c0,0.49-0.06,0.86-0.08,1.11H551.23z M558.41,109.66c0.03-1.51-0.64-3.86-3.39-3.86c-2.48,0-3.56,2.21-3.75,3.86H558.41z"/>
		<path class="st8" d="M563.55,108.48c0-1.54-0.03-2.86-0.11-4.08h2.14l0.08,2.56h0.11c0.61-1.75,2.09-2.86,3.73-2.86
			c0.28,0,0.47,0.03,0.7,0.08v2.24c-0.25-0.05-0.5-0.08-0.83-0.08c-1.72,0-2.95,1.27-3.28,3.05c-0.06,0.32-0.11,0.7-0.11,1.11v6.96
			h-2.42V108.48z"/>
		<path class="st8" d="M575.23,100.73c0.03,0.81-0.58,1.46-1.56,1.46c-0.86,0-1.47-0.65-1.47-1.46c0-0.84,0.64-1.48,1.53-1.48
			C574.65,99.25,575.23,99.89,575.23,100.73z M572.5,117.46V104.4h2.45v13.06H572.5z"/>
		<path class="st8" d="M578.76,107.94c0-1.35-0.03-2.46-0.11-3.54h2.17l0.14,2.16h0.06c0.67-1.24,2.22-2.46,4.45-2.46
			c1.86,0,4.76,1.08,4.76,5.56v7.8h-2.45v-7.53c0-2.11-0.81-3.86-3.12-3.86c-1.61,0-2.87,1.11-3.28,2.43
			c-0.11,0.3-0.17,0.7-0.17,1.11v7.85h-2.45V107.94z"/>
		<path class="st8" d="M605.55,104.4c-0.06,0.94-0.11,2-0.11,3.59v7.58c0,3-0.61,4.83-1.92,5.97c-1.31,1.19-3.2,1.57-4.9,1.57
			c-1.61,0-3.39-0.38-4.48-1.08l0.61-1.81c0.89,0.54,2.28,1.03,3.95,1.03c2.5,0,4.34-1.27,4.34-4.56v-1.46h-0.06
			c-0.75,1.21-2.2,2.19-4.28,2.19c-3.34,0-5.73-2.75-5.73-6.37c0-4.43,2.98-6.94,6.06-6.94c2.34,0,3.62,1.19,4.2,2.27h0.06
			l0.11-1.97H605.55z M603.01,109.56c0-0.4-0.03-0.76-0.14-1.08c-0.45-1.38-1.64-2.51-3.42-2.51c-2.34,0-4,1.92-4,4.94
			c0,2.56,1.33,4.7,3.98,4.7c1.5,0,2.87-0.92,3.39-2.43c0.14-0.4,0.19-0.86,0.19-1.27V109.56z"/>
	</g>
</g>
<g id="Layer_3">
</g>
</svg>
