<?xml version="1.0" standalone="no"?>
<!DOCTYPE svg PUBLIC "-//W3C//DTD SVG 20010904//EN"
 "http://www.w3.org/TR/2001/REC-SVG-20010904/DTD/svg10.dtd">
<svg version="1.0" xmlns="http://www.w3.org/2000/svg"
 width="2428.000000pt" height="2428.000000pt" viewBox="0 0 2428.000000 2428.000000"
 preserveAspectRatio="xMidYMid meet">
<metadata>
Created by potrace 1.14, written by Peter Selinger 2001-2017
</metadata>
<g transform="translate(0.000000,2428.000000) scale(0.100000,-0.100000)"
fill="#000000" stroke="none">
<path d="M15015 14599 c-204 -42 -346 -131 -442 -278 -94 -143 -125 -280 -127
-543 l0 -118 -208 0 -208 0 0 -385 0 -385 203 -2 202 -3 1 -840 c1 -462 2
-842 3 -845 2 -8 828 -6 836 2 5 5 7 87 3 193 0 11 0 56 1 100 0 44 0 87 0 95
0 8 0 71 0 140 0 69 0 134 -1 145 0 11 0 56 1 100 0 44 0 87 0 95 0 8 0 71 0
140 0 69 0 134 -1 145 0 11 0 56 1 100 0 44 0 89 0 100 0 11 1 72 1 136 0 64
0 121 -1 125 -1 5 0 14 1 19 1 6 3 19 4 30 1 19 9 20 274 23 l272 2 0 385 0
385 -262 1 c-145 1 -275 0 -290 -1 l-28 -1 4 88 c4 98 12 125 50 170 40 47 91
57 317 57 131 0 200 3 202 10 2 6 3 151 3 321 l-1 310 -360 1 c-314 1 -371 -1
-450 -17z"/>
<path d="M1447 14161 c-642 -639 -1412 -1411 -1415 -1420 -1 -4 697 -709 1553
-1566 l1556 -1557 311 311 c171 171 309 314 307 316 -2 2 -563 564 -1246 1248
l-1241 1244 463 463 462 462 913 -1 913 -1 460 -460 c253 -253 458 -463 456
-465 -2 -3 -268 -269 -590 -592 l-587 -588 312 -312 312 -312 903 903 904 904
-903 903 -903 904 -1276 1 -1276 0 -388 -385z"/>
<path d="M6929 14372 l-26 -3 0 -1587 0 -1587 438 0 437 0 0 420 c0 231 1 429
1 441 1 20 6 20 269 21 294 0 360 4 473 28 266 54 521 209 664 400 21 28 40
52 44 55 6 5 13 17 66 114 39 70 90 207 104 280 6 28 13 65 17 81 10 51 12
301 3 352 -6 26 -11 59 -13 73 -33 250 -223 549 -446 700 -103 71 -265 148
-342 164 -52 11 -71 16 -91 22 -12 4 -33 9 -47 10 -14 2 -50 6 -80 9 -55 7
-1421 13 -1471 7z m1377 -750 c149 -81 226 -226 221 -415 -2 -79 -7 -101 -33
-157 -69 -144 -193 -212 -391 -212 -26 0 -50 1 -53 2 -14 4 -90 4 -90 0 0 -7
-170 -4 -177 4 -4 4 -7 628 -4 784 l1 34 233 -4 232 -3 61 -33z"/>
<path d="M10705 13722 c-2 -2 -23 -6 -47 -8 -95 -8 -185 -28 -293 -66 -287
-100 -541 -312 -683 -569 -62 -112 -116 -259 -138 -374 -2 -11 -6 -31 -9 -45
-16 -77 -24 -333 -12 -390 3 -14 10 -56 17 -95 40 -248 166 -493 349 -675 219
-218 473 -337 801 -376 97 -12 330 -5 396 11 12 2 37 7 57 10 20 4 67 15 104
26 38 11 75 21 83 23 135 35 388 193 488 305 13 14 38 42 56 61 17 19 43 51
56 70 13 19 27 37 30 40 29 24 141 253 164 335 6 20 1 20 -415 20 -410 0 -421
-1 -431 -20 -19 -35 -112 -121 -145 -136 -18 -8 -33 -17 -33 -20 0 -5 -55 -24
-104 -36 -116 -26 -247 -21 -341 13 -22 9 -48 18 -57 21 -10 3 -18 9 -18 14 0
5 -4 9 -10 9 -13 0 -45 26 -92 75 -39 40 -105 161 -111 202 -2 12 -6 26 -10
29 -16 17 -6 44 16 45 12 0 419 0 904 0 556 1 885 4 889 11 12 20 26 300 16
322 -3 4 -6 25 -8 45 -6 77 -16 129 -40 210 -9 31 -17 61 -18 66 -6 23 -42
104 -77 171 -52 99 -61 115 -86 143 -13 14 -23 29 -23 32 0 14 -100 120 -176
186 -62 55 -174 136 -174 127 0 -3 -12 3 -27 14 -66 46 -257 122 -345 137 -17
3 -34 7 -37 9 -3 2 -30 7 -60 11 -30 4 -63 9 -75 12 -26 6 -325 11 -331 5z
m261 -666 c120 -21 250 -104 307 -198 34 -54 59 -102 62 -118 2 -8 6 -23 10
-32 7 -17 -21 -18 -489 -18 l-496 0 20 51 c63 168 182 275 346 312 59 14 171
15 240 3z"/>
<path d="M17096 13723 c-1 -1 -30 -5 -65 -8 -432 -37 -800 -287 -995 -672
-208 -415 -176 -1000 77 -1377 117 -174 286 -324 462 -411 99 -48 248 -100
316 -110 24 -3 51 -8 59 -10 61 -17 262 -23 370 -11 129 13 349 79 398 118 6
6 12 7 12 2 0 -5 4 -4 8 1 4 6 17 16 30 23 12 6 32 18 45 25 12 6 24 14 27 17
3 3 21 17 42 32 l36 28 16 -25 c9 -13 16 -30 16 -36 0 -7 10 -34 22 -61 17
-39 26 -48 47 -49 39 0 540 -1 587 0 l40 1 -2 578 c-1 317 -3 582 -4 587 -1 6
-1 15 0 20 1 6 1 44 1 85 -2 170 -1 252 4 260 3 5 2 11 -2 13 -5 3 -8 210 -8
461 l0 456 -222 1 c-123 0 -262 1 -310 1 l-88 1 -22 -42 c-12 -23 -23 -44 -23
-46 0 -11 -5 -27 -18 -58 -7 -16 -12 -33 -12 -38 0 -16 -21 -9 -59 19 -119 94
-342 189 -485 207 -114 15 -150 18 -219 19 -43 1 -79 1 -81 -1z m354 -763 c19
-6 42 -14 50 -18 8 -3 17 -6 20 -7 18 -4 82 -43 120 -73 150 -118 223 -313
197 -527 -28 -226 -201 -414 -422 -458 -64 -13 -190 -15 -240 -3 -255 58 -427
277 -428 546 -1 108 20 189 74 290 32 61 122 158 167 181 15 8 29 16 32 19 7
8 78 36 130 53 54 17 248 15 300 -3z"/>
<path d="M20296 13721 c-4 -6 -10 -9 -14 -7 -7 4 -126 -15 -181 -28 -106 -25
-250 -91 -341 -156 -45 -32 -51 -37 -106 -88 -25 -24 -47 -42 -48 -40 -2 1
-29 60 -61 131 l-58 127 -296 -2 -296 -3 3 -1190 c2 -654 4 -1208 5 -1230 l2
-40 420 0 420 0 1 705 c1 388 4 721 8 740 12 53 12 53 20 80 60 200 245 313
456 275 126 -22 216 -132 237 -288 4 -29 7 -378 7 -777 0 -399 4 -727 7 -730
12 -9 823 -5 837 3 7 5 10 13 6 18 -9 14 -10 119 -2 119 4 0 5 6 2 13 -8 22
-10 147 -2 147 4 0 5 6 2 13 -8 23 -9 147 -1 147 5 0 5 4 2 10 -5 7 -7 227 -4
435 1 84 1 173 0 190 -5 93 -5 165 0 165 4 0 3 15 0 33 -4 17 -4 51 -1 75 4
23 4 42 1 42 -3 0 -6 50 -6 110 1 113 -29 313 -55 375 -11 27 -23 59 -24 65
-4 22 -67 137 -103 188 -74 104 -160 184 -268 248 -47 29 -147 72 -176 78 -8
1 -34 8 -58 15 -63 18 -114 24 -221 25 -52 0 -98 5 -101 10 -4 4 -10 3 -13 -3z"/>
<path d="M22633 13720 c-2 -3 -12 -5 -21 -6 -80 -2 -283 -51 -360 -86 -115
-52 -229 -115 -260 -145 -7 -7 -17 -13 -21 -13 -4 0 -46 -37 -93 -82 -86 -83
-167 -182 -204 -248 -10 -19 -21 -37 -24 -40 -9 -8 -77 -162 -95 -215 -80
-239 -92 -559 -31 -810 1 -5 6 -26 10 -45 5 -19 13 -41 18 -47 6 -7 8 -13 5
-13 -2 0 1 -15 8 -32 6 -18 18 -49 25 -68 67 -175 228 -382 395 -507 63 -48
270 -160 306 -167 8 -1 45 -12 84 -25 38 -12 83 -23 100 -26 17 -2 42 -6 55
-9 78 -18 258 -24 379 -12 41 4 78 9 82 12 4 2 23 6 42 9 40 7 175 48 203 63
11 5 44 22 74 37 30 15 87 49 126 75 l72 48 36 -86 37 -87 320 1 c176 1 322 4
325 7 6 6 8 2446 2 2452 -4 4 -423 8 -574 6 l-51 -1 -26 -60 c-15 -33 -34 -78
-43 -100 l-16 -40 -36 28 c-21 15 -39 29 -42 32 -36 36 -288 150 -362 164 -13
2 -41 9 -63 15 -72 19 -367 36 -382 21z m380 -754 c147 -34 291 -147 355 -280
105 -217 69 -490 -86 -652 -44 -47 -142 -122 -142 -109 0 3 -10 -1 -22 -9 -60
-38 -237 -61 -338 -45 -46 8 -145 42 -161 56 -8 7 -19 13 -24 13 -11 0 -96 70
-118 97 -10 13 -24 29 -31 36 -34 35 -90 159 -102 227 -11 62 -10 188 3 249
36 180 174 341 336 395 9 3 19 6 22 7 65 25 229 33 308 15z"/>
<path d="M12383 13662 l-41 -3 3 -1197 c2 -658 4 -1213 4 -1232 l1 -35 418 0
417 0 2 95 c2 52 4 361 6 685 2 325 6 607 10 627 9 49 49 135 78 172 31 37 82
69 144 89 65 21 110 25 285 26 l145 1 -1 382 -1 383 -124 1 c-191 2 -307 -20
-429 -80 -92 -46 -111 -59 -195 -139 l-62 -57 -28 57 c-15 32 -45 95 -68 140
l-40 82 -241 3 c-133 2 -260 2 -283 0z"/>
<path d="M14236 10739 c-91 -21 -142 -96 -145 -216 -1 -32 -3 -33 -40 -33 -41
0 -42 -1 -32 -71 1 -3 17 -5 36 -4 l35 3 0 -224 c0 -248 -6 -225 65 -227 l30
-1 2 159 c1 88 2 190 2 227 l1 67 62 -2 61 -2 3 37 3 36 -62 0 -62 -1 1 62 c1
53 5 67 26 88 29 29 86 40 120 22 13 -6 20 -9 17 -5 -4 4 -3 22 1 41 7 29 5
35 -11 40 -35 11 -73 12 -113 4z"/>
<path d="M9015 10679 c-28 -23 -32 -54 -10 -83 8 -11 15 -17 15 -13 0 4 9 3
19 -2 25 -14 71 21 71 53 0 53 -52 78 -95 45z"/>
<path d="M20622 10687 c-43 -19 -40 -92 4 -103 39 -10 73 3 80 32 14 55 -33
94 -84 71z"/>
<path d="M22928 10681 c-29 -20 -34 -46 -13 -77 31 -48 105 -23 105 35 0 47
-51 70 -92 42z"/>
<path d="M8705 10625 c-39 -12 -40 -13 -42 -61 -1 -27 -2 -55 -2 -61 -1 -8
-16 -13 -40 -13 -35 0 -39 -3 -43 -30 -5 -36 7 -49 45 -43 17 2 29 -1 33 -11
3 -7 6 -92 7 -187 2 -165 3 -176 25 -207 28 -39 73 -60 122 -56 19 1 45 3 58
3 19 1 22 7 22 39 l0 38 -39 -3 c-43 -3 -82 20 -88 53 -3 17 -6 274 -4 314 1
13 15 16 68 15 l67 0 2 37 2 37 -71 3 -72 3 2 67 c1 37 -1 69 -5 71 -4 2 -25
-2 -47 -8z"/>
<path d="M7073 10478 c-77 -28 -143 -101 -161 -177 -14 -59 -6 -155 18 -206
39 -86 140 -143 245 -139 28 1 50 3 50 4 0 0 18 3 39 5 51 6 57 13 49 57 -5
34 -7 36 -26 26 -32 -17 -122 -21 -162 -8 -136 45 -169 248 -56 343 18 15 38
27 44 28 7 0 21 3 32 6 30 8 110 4 138 -6 22 -8 25 -6 34 23 9 29 7 35 -11 46
-35 22 -173 21 -233 -2z"/>
<path d="M7570 10490 c-82 -39 -130 -76 -130 -100 0 -5 -4 -10 -8 -10 -4 0
-16 -23 -26 -51 -22 -61 -18 -186 8 -236 85 -162 312 -187 434 -48 44 50 65
109 65 188 0 127 -61 214 -174 254 -42 14 -142 16 -169 3z m142 -75 c85 -35
127 -176 83 -281 -34 -82 -89 -113 -186 -105 -26 2 -87 63 -103 103 -26 62
-23 144 7 208 36 75 122 108 199 75z"/>
<path d="M8222 10487 c-18 -7 -49 -28 -68 -46 l-34 -34 -1 27 c-1 14 -2 32 -3
39 -1 7 -18 13 -43 14 l-43 2 1 -262 1 -262 46 0 47 1 5 179 c5 195 10 215 62
252 46 32 127 27 162 -10 34 -36 39 -73 39 -262 l0 -160 46 0 46 1 3 189 c2
185 2 190 -23 241 -16 34 -39 61 -61 74 -42 27 -135 35 -182 17z"/>
<path d="M9433 10480 c-23 -11 -51 -31 -61 -45 -27 -34 -31 -32 -29 15 l3 41
-45 -3 -45 -3 -1 -257 c0 -142 3 -259 8 -259 20 -4 73 -5 82 -2 7 2 10 64 10
170 0 146 2 172 19 206 53 108 206 100 235 -11 5 -20 9 -110 8 -199 -1 -102 2
-164 8 -166 6 -2 28 -3 50 -2 l40 0 -1 195 c-2 223 -8 247 -74 300 -53 42
-142 51 -207 20z"/>
<path d="M10635 10493 c-104 -26 -176 -109 -190 -218 -4 -28 -7 -52 -8 -55 -2
-14 17 -99 28 -125 25 -58 96 -117 158 -132 122 -29 261 28 312 127 15 30 31
111 30 155 -3 103 -68 201 -156 235 -43 16 -134 23 -174 13z m137 -81 c56 -23
99 -123 91 -211 -16 -174 -200 -236 -291 -99 -24 37 -27 50 -27 127 0 69 4 92
21 118 21 33 58 66 84 75 24 8 93 3 122 -10z"/>
<path d="M11775 10488 c-93 -32 -135 -142 -80 -214 16 -20 55 -47 109 -72 86
-41 106 -61 106 -105 0 -67 -99 -91 -204 -48 -34 14 -35 13 -43 -31 -6 -37 -7
-36 67 -55 100 -25 225 12 260 78 20 36 18 100 -3 140 -16 31 -35 45 -96 74
-106 50 -105 49 -119 77 -16 35 -2 71 35 87 30 12 103 7 134 -10 17 -8 22 -5
33 23 14 32 13 34 -11 47 -33 17 -148 22 -188 9z"/>
<path d="M12692 10480 c-23 -10 -51 -30 -63 -44 -28 -32 -36 -33 -36 -3 -1 59
-1 58 -45 55 l-43 -3 2 -115 c1 -63 2 -229 2 -368 l1 -253 48 3 47 3 1 130 c2
157 2 155 15 132 18 -32 103 -65 157 -61 83 5 112 17 169 74 91 90 93 305 3
398 -65 69 -173 90 -258 52z m132 -70 c20 -8 80 -64 76 -72 -1 -1 3 -15 9 -30
6 -15 9 -58 7 -95 -5 -113 -53 -172 -146 -181 -100 -9 -160 51 -164 165 -4
119 17 169 90 210 39 22 77 23 128 3z"/>
<path d="M13242 10475 c-86 -41 -137 -128 -141 -240 -4 -122 39 -205 131 -251
42 -22 66 -26 128 -27 72 0 90 2 153 18 25 7 27 10 21 39 -8 41 -10 42 -42 30
-15 -6 -58 -12 -96 -13 -113 -4 -183 45 -201 142 l-7 37 191 0 c213 0 195 -7
191 74 -2 49 -39 134 -71 163 -60 55 -173 67 -257 28z m168 -60 c32 -17 54
-51 63 -102 5 -27 3 -33 -11 -34 -9 0 -73 -1 -142 -1 -139 0 -140 0 -108 62
34 68 64 89 126 89 24 1 56 -6 72 -14z"/>
<path d="M13865 10486 c-31 -14 -75 -59 -75 -75 0 -6 -5 -13 -10 -16 -6 -4
-10 -3 -9 2 1 4 1 27 0 51 l-1 43 -42 -3 -42 -3 3 -255 c1 -140 4 -257 6 -260
3 -4 61 -5 85 -1 3 1 6 67 6 149 0 81 3 163 7 182 13 63 70 110 135 110 25 0
27 3 26 42 0 40 -2 43 -30 45 -16 2 -42 -3 -59 -11z"/>
<path d="M14515 10485 c-75 -29 -142 -105 -161 -186 -13 -55 -6 -142 14 -190
27 -60 89 -125 128 -134 11 -2 33 -8 49 -13 41 -12 123 -6 168 13 56 23 112
79 136 135 24 56 30 156 12 203 -6 15 -8 27 -6 27 8 0 -26 52 -54 83 -14 16
-44 38 -66 49 -52 27 -164 34 -220 13z m144 -65 c28 -8 89 -61 92 -79 0 -3 3
-15 6 -26 27 -111 13 -185 -48 -246 -22 -22 -44 -37 -49 -34 -5 3 -11 1 -14
-4 -9 -15 -136 12 -136 29 0 3 -8 15 -18 26 -80 86 -51 278 49 327 39 19 70
21 118 7z"/>
<path d="M15161 10483 c-18 -9 -44 -34 -58 -55 -14 -21 -27 -38 -28 -38 -2 0
-3 15 -3 33 1 66 1 67 -42 67 -25 0 -40 -5 -40 -12 -4 -149 3 -504 10 -508 8
-5 56 -5 81 -1 4 1 7 72 7 159 1 217 24 268 127 280 l42 4 -1 42 c-1 38 -3 41
-31 44 -16 1 -45 -6 -64 -15z"/>
<path d="M15538 10486 c-16 -8 -28 -13 -28 -10 0 3 -15 -11 -34 -30 -18 -20
-35 -36 -38 -36 -2 0 -3 12 -2 28 2 43 -6 52 -46 52 l-38 0 2 -262 1 -263 45
0 45 0 5 185 c4 151 8 189 22 208 54 77 149 85 195 16 15 -24 19 -56 23 -219
l5 -190 45 0 45 1 1 164 c1 91 4 177 7 191 16 83 106 124 178 82 44 -26 53
-68 55 -254 0 -91 3 -170 7 -175 3 -6 25 -10 48 -9 l43 1 -1 172 c-1 183 -6
234 -29 270 -8 12 -11 22 -7 22 4 0 -13 15 -37 33 -36 26 -55 32 -98 34 -72 2
-105 -11 -152 -59 l-39 -40 -15 30 c-30 59 -145 91 -208 58z"/>
<path d="M16324 10477 l-52 -19 10 -32 10 -33 49 18 c116 44 201 11 216 -82 4
-27 2 -29 -29 -30 -136 -5 -241 -49 -277 -117 -30 -55 -16 -141 29 -184 63
-60 189 -56 260 9 l25 23 3 -30 c4 -32 3 -32 47 -32 50 -1 57 1 49 14 -4 6 -8
92 -9 189 -1 119 -6 188 -15 211 -19 49 -69 97 -112 109 -54 14 -145 8 -204
-14z m235 -304 c0 -71 -20 -107 -74 -133 -62 -30 -136 -7 -150 47 -20 83 49
140 172 142 l52 1 0 -57z"/>
<path d="M16990 10484 c-19 -8 -47 -28 -62 -45 -27 -29 -39 -36 -37 -21 1 4 1
22 0 40 -1 33 -2 33 -43 30 l-42 -3 -1 -253 c0 -159 4 -256 10 -261 6 -3 28
-6 50 -6 l40 1 0 174 c1 190 9 222 61 256 64 42 133 31 178 -30 19 -25 21 -42
23 -207 1 -99 4 -183 7 -187 4 -7 33 -8 82 -3 8 1 11 57 9 194 -2 216 -11 250
-80 302 -43 33 -140 42 -195 19z"/>
<path d="M17554 10479 c-28 -11 -67 -34 -87 -52 -42 -37 -82 -124 -86 -184 -3
-49 18 -153 31 -153 4 0 8 -7 8 -15 0 -34 89 -98 160 -113 32 -6 118 -6 150 1
14 3 30 6 35 6 27 3 36 19 30 54 -6 32 -10 35 -26 27 -10 -6 -43 -13 -74 -16
-135 -15 -220 71 -216 216 2 49 48 125 91 149 22 12 40 20 40 17 0 -3 10 -2
23 3 22 9 102 0 142 -15 11 -4 17 -4 13 1 -4 4 -1 20 7 34 12 25 12 28 -8 41
-35 22 -173 21 -233 -1z"/>
<path d="M18019 10478 c-53 -23 -74 -42 -105 -89 -50 -80 -60 -203 -23 -289
52 -121 184 -169 362 -131 l58 13 -7 31 c-3 18 -7 33 -9 35 -1 1 -22 -2 -46
-7 -65 -15 -143 -13 -188 5 -46 18 -88 73 -96 127 l-6 37 190 0 c217 0 205 -6
186 95 -18 97 -55 150 -125 178 -50 21 -139 19 -191 -5z m194 -89 c9 -10 17
-25 17 -33 0 -8 4 -17 9 -20 4 -3 8 -17 7 -32 l-1 -27 -131 0 c-72 0 -136 3
-142 7 -8 4 -7 16 1 39 17 45 28 60 62 84 55 38 130 30 178 -18z"/>
<path d="M18995 10494 c-122 -32 -199 -147 -190 -287 6 -101 40 -167 111 -213
67 -44 212 -51 308 -14 23 8 24 12 15 40 -12 34 -9 33 -69 19 -145 -35 -270
30 -270 140 l0 31 184 0 c138 0 185 3 188 13 10 25 -2 109 -21 150 -39 83 -86
116 -173 122 -35 2 -72 2 -83 -1z m117 -76 c30 -15 51 -47 66 -100 8 -28 7
-38 -1 -39 -7 0 -72 -1 -145 -2 -148 -2 -146 -4 -112 70 32 72 121 104 192 71z"/>
<path d="M19583 10490 c-18 -6 -49 -26 -69 -45 -20 -19 -38 -35 -39 -35 -1 0
-2 17 -2 38 l1 37 -43 0 -44 0 1 -210 c1 -115 1 -233 2 -261 l0 -50 43 2 c23
1 44 2 48 3 3 0 5 79 5 174 0 143 3 177 18 205 22 42 71 72 118 72 50 0 81
-16 104 -53 19 -32 23 -94 24 -338 l0 -65 39 2 c21 1 43 4 49 8 6 4 9 75 8
193 -2 174 -4 191 -25 233 -30 60 -79 91 -150 96 -31 2 -70 -1 -88 -6z"/>
<path d="M20118 10485 c-126 -46 -191 -207 -144 -355 32 -100 94 -151 195
-157 75 -5 125 11 164 52 l23 26 1 -49 c2 -73 -18 -122 -64 -155 -50 -36 -129
-42 -205 -16 -37 12 -56 14 -65 7 -7 -6 -11 -14 -8 -18 3 -5 1 -11 -4 -15 -17
-10 -1 -33 27 -41 15 -4 36 -10 47 -13 11 -2 58 -5 105 -5 104 -1 167 26 216
91 42 56 47 92 49 396 l2 258 -41 -3 c-38 -3 -41 -5 -44 -35 -4 -38 -12 -41
-30 -12 -32 50 -146 73 -224 44z m137 -64 c26 -1 68 -38 87 -76 19 -35 19
-184 0 -227 -6 -15 -27 -38 -47 -51 -34 -23 -68 -28 -141 -18 -20 2 -73 63
-84 96 -22 67 -13 156 21 212 22 35 92 74 123 68 12 -2 30 -4 41 -4z"/>
<path d="M21035 10483 c-22 -9 -51 -29 -64 -45 -13 -15 -27 -28 -30 -28 -3 0
-6 17 -6 37 0 37 -1 38 -42 41 l-43 3 0 -263 0 -263 42 2 c24 0 46 2 51 2 4 1
7 80 7 176 0 165 1 177 23 210 26 40 71 65 119 65 47 0 78 -19 101 -62 17 -33
19 -59 18 -213 l0 -175 24 -1 c14 -1 35 -2 48 -2 l22 -1 2 190 c2 204 -4 238
-57 293 -49 51 -138 65 -215 34z"/>
<path d="M21569 10479 c-88 -43 -139 -130 -144 -244 -9 -203 127 -309 349
-271 76 13 86 17 86 40 0 39 -14 49 -53 38 -19 -5 -66 -10 -103 -10 -115 0
-174 50 -187 158 -2 13 25 15 183 18 132 2 186 6 192 15 22 34 -17 168 -62
216 -56 58 -184 77 -261 40z m184 -82 c33 -30 59 -99 44 -113 -10 -11 -277 -9
-280 1 -7 20 26 81 61 113 31 27 43 32 88 32 46 0 57 -4 87 -33z"/>
<path d="M22107 10471 c-58 -30 -109 -96 -128 -164 -15 -55 -7 -174 15 -215
30 -59 84 -107 131 -118 6 -2 24 -7 40 -12 41 -12 149 -6 218 13 28 7 31 14
20 53 -4 19 -10 22 -27 17 -11 -4 -55 -9 -97 -12 -63 -4 -82 -2 -122 17 -52
24 -82 65 -91 123 l-6 37 190 0 c208 0 195 -4 192 60 -2 27 -9 73 -12 78 -2 1
-3 5 -4 10 -5 20 -37 69 -58 89 -61 58 -176 68 -261 24z m199 -75 c34 -35 57
-115 32 -117 -23 -1 -181 -1 -230 0 l-47 1 9 31 c33 114 160 160 236 85z"/>
<path d="M22714 10475 c-22 -13 -46 -36 -53 -51 -15 -33 -24 -25 -25 23 -1 37
-2 38 -42 39 l-41 1 1 -258 c1 -143 3 -259 6 -260 7 -2 62 -2 80 0 13 1 15 27
15 169 0 135 4 173 17 197 25 47 53 67 103 72 l45 6 0 43 c0 43 -1 44 -32 44
-18 0 -51 -11 -74 -25z"/>
<path d="M23345 10481 c-22 -10 -51 -31 -65 -46 l-25 -27 -5 39 c-5 37 -6 38
-46 40 l-41 2 1 -263 1 -262 42 1 c24 1 46 4 49 8 3 3 6 79 6 169 0 141 2 169
19 205 25 52 72 77 135 70 92 -9 110 -57 109 -284 0 -90 2 -163 5 -164 7 -2
62 -2 80 0 13 1 15 26 14 169 -1 188 -6 227 -36 278 -44 74 -157 105 -243 65z"/>
<path d="M23883 10480 c-65 -31 -123 -101 -140 -170 -10 -37 -11 -121 -2 -160
11 -50 57 -120 95 -145 45 -29 113 -42 168 -33 48 9 57 14 102 55 13 12 24 19
25 15 0 -4 2 -16 4 -26 8 -41 -17 -125 -46 -154 -49 -50 -156 -61 -243 -27
-39 16 -48 15 -52 -8 -1 -7 -5 -20 -9 -29 -12 -31 56 -51 170 -52 86 -1 106 2
145 23 71 37 102 77 120 155 5 23 10 158 11 301 l1 260 -43 0 c-44 0 -44 0
-41 -32 4 -37 -12 -44 -28 -13 -28 53 -164 76 -237 40z m187 -79 c49 -35 64
-77 63 -171 0 -85 -11 -118 -48 -155 -37 -37 -139 -41 -184 -8 -44 33 -70 98
-67 167 3 77 25 126 67 159 53 40 121 43 169 8z"/>
<path d="M9008 10488 c0 -2 -2 -119 -3 -260 -1 -182 1 -258 9 -259 6 -1 28 -2
49 -3 l37 -2 1 108 c0 59 0 137 0 173 0 36 0 106 0 155 l-1 90 -45 0 c-25 0
-46 -1 -47 -2z"/>
<path d="M9867 10483 c-2 -5 -3 -90 -1 -190 2 -187 7 -218 46 -275 50 -73 200
-84 269 -19 13 11 26 21 31 21 4 0 8 8 8 17 0 28 15 3 16 -28 1 -16 2 -33 3
-37 1 -6 54 -8 81 -3 3 1 4 49 2 108 -2 60 -3 119 -3 133 0 27 1 141 1 228 l1
52 -49 0 -49 0 -1 -175 c0 -119 -4 -183 -13 -203 -27 -61 -123 -96 -180 -66
-55 28 -62 60 -63 261 l-1 183 -47 0 c-26 0 -49 -3 -51 -7z"/>
<path d="M11079 10448 c-2 -148 0 -298 5 -328 14 -78 48 -127 106 -152 67 -29
180 -5 225 48 25 29 35 23 35 -21 0 -32 5 -33 75 -26 6 1 9 91 8 254 -1 138
-2 256 -2 260 -1 4 -22 7 -48 5 l-48 -3 -1 -165 c-2 -213 0 -200 -32 -236 -30
-33 -49 -43 -104 -50 -31 -5 -42 -1 -72 28 -20 18 -38 47 -41 63 -4 17 -7 105
-7 196 l-1 166 -48 2 -49 1 -1 -42z"/>
<path d="M20604 10475 c-3 -8 -4 -33 -1 -55 2 -22 0 -43 -4 -46 -5 -3 -7 -10
-3 -15 5 -9 6 -54 4 -149 -1 -8 0 -45 1 -81 2 -36 -1 -71 -5 -77 -4 -7 -3 -12
3 -12 7 0 7 -8 2 -23 -13 -35 1 -49 50 -50 l44 -2 3 263 2 262 -45 0 c-31 0
-47 -5 -51 -15z"/>
<path d="M22915 10478 c-2 -7 -3 -125 -2 -263 l2 -249 44 -1 c32 0 45 4 50 17
3 9 5 127 3 262 l-3 246 -45 0 c-27 0 -46 -5 -49 -12z"/>
</g>
</svg>
